<svg width="21" height="28" viewBox="0 0 21 28" fill="none" xmlns="http://www.w3.org/2000/svg">
<path d="M19 12H17V22H3V11C3 9.14348 3.7375 7.36301 5.05025 6.05025C6.36301 4.7375 8.14348 4 10 4C10.8983 3.99708 11.7884 4.17035 12.62 4.51L13.37 2.65C12.611 2.34487 11.8134 2.14632 11 2.06V0H9V2.06C6.80064 2.3059 4.76899 3.35351 3.29322 5.00268C1.81745 6.65185 1.00105 8.78694 1 11V22H0V24H6C6 25.0609 6.42143 26.0783 7.17157 26.8284C7.92172 27.5786 8.93913 28 10 28C11.0609 28 12.0783 27.5786 12.8284 26.8284C13.5786 26.0783 14 25.0609 14 24H20V22H19V12ZM10 26C9.46957 26 8.96086 25.7893 8.58579 25.4142C8.21071 25.0391 8 24.5304 8 24H12C12 24.5304 11.7893 25.0391 11.4142 25.4142C11.0391 25.7893 10.5304 26 10 26ZM17 11C17.7911 11 18.5645 10.7654 19.2223 10.3259C19.8801 9.88635 20.3928 9.26164 20.6955 8.53073C20.9983 7.79983 21.0775 6.99556 20.9231 6.21964C20.7688 5.44371 20.3878 4.73098 19.8284 4.17157C19.269 3.61216 18.5563 3.2312 17.7804 3.07686C17.0044 2.92252 16.2002 3.00173 15.4693 3.30448C14.7384 3.60723 14.1136 4.11992 13.6741 4.77772C13.2346 5.43552 13 6.20887 13 7C13 8.06087 13.4214 9.07828 14.1716 9.82843C14.9217 10.5786 15.9391 11 17 11ZM17 5C17.3956 5 17.7822 5.1173 18.1111 5.33706C18.44 5.55682 18.6964 5.86918 18.8478 6.23463C18.9991 6.60009 19.0387 7.00222 18.9616 7.39018C18.8844 7.77814 18.6939 8.13451 18.4142 8.41421C18.1345 8.69392 17.7781 8.8844 17.3902 8.96157C17.0022 9.03874 16.6001 8.99913 16.2346 8.84776C15.8692 8.69638 15.5568 8.44004 15.3371 8.11114C15.1173 7.78224 15 7.39556 15 7C15 6.46957 15.2107 5.96086 15.5858 5.58579C15.9609 5.21071 16.4696 5 17 5Z" fill="black"/>
</svg>
