<svg width="100" height="100" viewBox="0 0 100 100" fill="none" xmlns="http://www.w3.org/2000/svg">
<path d="M34.2528 55V53.4773L38.2926 49.517C38.679 49.1269 39.0009 48.7803 39.2585 48.4773C39.5161 48.1742 39.7093 47.8807 39.8381 47.5966C39.9669 47.3125 40.0312 47.0095 40.0312 46.6875C40.0312 46.3201 39.9479 46.0057 39.7812 45.7443C39.6146 45.4792 39.3854 45.2746 39.0938 45.1307C38.8021 44.9867 38.4706 44.9148 38.0994 44.9148C37.7169 44.9148 37.3816 44.9943 37.0938 45.1534C36.8059 45.3087 36.5824 45.5303 36.4233 45.8182C36.268 46.1061 36.1903 46.4489 36.1903 46.8466H34.1847C34.1847 46.108 34.3532 45.4659 34.6903 44.9205C35.0275 44.375 35.4915 43.9527 36.0824 43.6534C36.6771 43.3542 37.3589 43.2045 38.1278 43.2045C38.9081 43.2045 39.5938 43.3504 40.1847 43.642C40.7756 43.9337 41.2339 44.3333 41.5597 44.8409C41.8892 45.3485 42.054 45.928 42.054 46.5795C42.054 47.0152 41.9706 47.4432 41.804 47.8636C41.6373 48.2841 41.3438 48.75 40.9233 49.2614C40.5066 49.7727 39.9214 50.392 39.1676 51.1193L37.1619 53.1591V53.2386H42.2301V55H34.2528ZM48.2358 55.1591C47.4782 55.1591 46.8002 55.017 46.2017 54.733C45.6032 54.4451 45.1278 54.0511 44.7756 53.5511C44.4271 53.0511 44.2415 52.4792 44.2188 51.8352H46.2642C46.3021 52.3125 46.5085 52.7027 46.8835 53.0057C47.2585 53.3049 47.7093 53.4545 48.2358 53.4545C48.6487 53.4545 49.0161 53.3598 49.3381 53.1705C49.66 52.9811 49.9138 52.7178 50.0994 52.3807C50.285 52.0436 50.3759 51.6591 50.3722 51.2273C50.3759 50.7879 50.2831 50.3977 50.0938 50.0568C49.9044 49.7159 49.6449 49.4489 49.3153 49.2557C48.9858 49.0587 48.607 48.9602 48.179 48.9602C47.8305 48.9564 47.4877 49.0208 47.1506 49.1534C46.8134 49.286 46.5464 49.4602 46.3494 49.6761L44.446 49.3636L45.054 43.3636H51.804V45.125H46.7983L46.4631 48.2102H46.5312C46.7472 47.9564 47.0521 47.7462 47.446 47.5795C47.84 47.4091 48.2718 47.3239 48.7415 47.3239C49.446 47.3239 50.0748 47.4905 50.6278 47.8239C51.1809 48.1534 51.6165 48.608 51.9347 49.1875C52.2528 49.767 52.4119 50.4299 52.4119 51.1761C52.4119 51.9451 52.2339 52.6307 51.8778 53.233C51.5256 53.8314 51.035 54.303 50.4062 54.6477C49.7812 54.9886 49.0578 55.1591 48.2358 55.1591ZM60.5369 52.8182V52.2045C60.5369 51.7538 60.6316 51.339 60.821 50.9602C61.0142 50.5814 61.2945 50.2765 61.6619 50.0455C62.0294 49.8144 62.4744 49.6989 62.9972 49.6989C63.535 49.6989 63.9858 49.8144 64.3494 50.0455C64.7131 50.2727 64.9877 50.5758 65.1733 50.9545C65.3627 51.3333 65.4574 51.75 65.4574 52.2045V52.8182C65.4574 53.2689 65.3627 53.6837 65.1733 54.0625C64.9839 54.4413 64.7055 54.7462 64.3381 54.9773C63.9744 55.2083 63.5275 55.3239 62.9972 55.3239C62.4669 55.3239 62.018 55.2083 61.6506 54.9773C61.2831 54.7462 61.0047 54.4413 60.8153 54.0625C60.6297 53.6837 60.5369 53.2689 60.5369 52.8182ZM62.0199 52.2045V52.8182C62.0199 53.1174 62.0919 53.392 62.2358 53.642C62.3797 53.892 62.6335 54.017 62.9972 54.017C63.3646 54.017 63.6165 53.8939 63.7528 53.6477C63.893 53.3977 63.9631 53.1212 63.9631 52.8182V52.2045C63.9631 51.9015 63.8968 51.625 63.7642 51.375C63.6316 51.1212 63.3759 50.9943 62.9972 50.9943C62.6411 50.9943 62.3892 51.1212 62.2415 51.375C62.0938 51.625 62.0199 51.9015 62.0199 52.2045ZM54.6222 46.1591V45.5455C54.6222 45.0909 54.7188 44.6742 54.9119 44.2955C55.1051 43.9167 55.3854 43.6136 55.7528 43.3864C56.1203 43.1553 56.5653 43.0398 57.0881 43.0398C57.6222 43.0398 58.071 43.1553 58.4347 43.3864C58.8021 43.6136 59.0786 43.9167 59.2642 44.2955C59.4498 44.6742 59.5426 45.0909 59.5426 45.5455V46.1591C59.5426 46.6136 59.4479 47.0303 59.2585 47.4091C59.0729 47.7841 58.7964 48.0852 58.429 48.3125C58.0616 48.5398 57.6146 48.6534 57.0881 48.6534C56.554 48.6534 56.1032 48.5398 55.7358 48.3125C55.3722 48.0852 55.0956 47.7822 54.9062 47.4034C54.7169 47.0246 54.6222 46.6098 54.6222 46.1591ZM56.1165 45.5455V46.1591C56.1165 46.4621 56.1866 46.7386 56.3267 46.9886C56.4706 47.2348 56.7244 47.358 57.0881 47.358C57.4517 47.358 57.7017 47.2348 57.8381 46.9886C57.9782 46.7386 58.0483 46.4621 58.0483 46.1591V45.5455C58.0483 45.2424 57.982 44.9659 57.8494 44.7159C57.7169 44.4621 57.4631 44.3352 57.0881 44.3352C56.7282 44.3352 56.4763 44.4621 56.3324 44.7159C56.1884 44.9697 56.1165 45.2462 56.1165 45.5455ZM55.2699 55L63.2699 43.3636H64.6903L56.6903 55H55.2699Z" fill="#727273"/>
<path d="M100 50C100 77.6142 77.6142 100 50 100C22.3858 100 0 77.6142 0 50C0 22.3858 22.3858 0 50 0C77.6142 0 100 22.3858 100 50ZM11.7536 50C11.7536 71.1229 28.8771 88.2464 50 88.2464C71.1229 88.2464 88.2464 71.1229 88.2464 50C88.2464 28.8771 71.1229 11.7536 50 11.7536C28.8771 11.7536 11.7536 28.8771 11.7536 50Z" fill="#F6F7FC"/>
<path d="M100 50C100 43.4339 98.7067 36.9321 96.194 30.8658C93.6812 24.7995 89.9983 19.2876 85.3553 14.6447C80.7124 10.0017 75.2004 6.31876 69.1342 3.80602C63.0679 1.29329 56.5661 -2.87013e-07 50 0L50 11.7536C55.0226 11.7536 59.996 12.7429 64.6363 14.665C69.2765 16.587 73.4928 19.4042 77.0443 22.9557C80.5958 26.5072 83.413 30.7235 85.335 35.3637C87.2571 40.004 88.2464 44.9774 88.2464 50H100Z" fill="#F9896B"/>
</svg>
