<svg width="100" height="100" viewBox="0 0 100 100" fill="none" xmlns="http://www.w3.org/2000/svg">
<path d="M38.4311 55.1591C37.6735 55.1591 36.9955 55.017 36.397 54.733C35.7985 54.4451 35.3232 54.0511 34.9709 53.5511C34.6224 53.0511 34.4368 52.4792 34.4141 51.8352H36.4595C36.4974 52.3125 36.7038 52.7027 37.0788 53.0057C37.4538 53.3049 37.9046 53.4545 38.4311 53.4545C38.844 53.4545 39.2114 53.3598 39.5334 53.1705C39.8554 52.9811 40.1091 52.7178 40.2947 52.3807C40.4804 52.0436 40.5713 51.6591 40.5675 51.2273C40.5713 50.7879 40.4785 50.3977 40.2891 50.0568C40.0997 49.7159 39.8402 49.4489 39.5107 49.2557C39.1811 49.0587 38.8023 48.9602 38.3743 48.9602C38.0258 48.9564 37.683 49.0208 37.3459 49.1534C37.0088 49.286 36.7417 49.4602 36.5447 49.6761L34.6413 49.3636L35.2493 43.3636H41.9993V45.125H36.9936L36.6584 48.2102H36.7266C36.9425 47.9564 37.2474 47.7462 37.6413 47.5795C38.0353 47.4091 38.4671 47.3239 38.9368 47.3239C39.6413 47.3239 40.2701 47.4905 40.8232 47.8239C41.3762 48.1534 41.8118 48.608 42.13 49.1875C42.4482 49.767 42.6072 50.4299 42.6072 51.1761C42.6072 51.9451 42.4292 52.6307 42.0732 53.233C41.7209 53.8314 41.2304 54.303 40.6016 54.6477C39.9766 54.9886 39.2531 55.1591 38.4311 55.1591ZM48.8118 55.2216C47.8762 55.2216 47.0732 54.9848 46.4027 54.5114C45.736 54.0341 45.2228 53.3466 44.8629 52.4489C44.5069 51.5473 44.3288 50.4621 44.3288 49.1932C44.3326 47.9242 44.5125 46.8447 44.8686 45.9545C45.2285 45.0606 45.7417 44.3788 46.4084 43.9091C47.0788 43.4394 47.88 43.2045 48.8118 43.2045C49.7436 43.2045 50.5447 43.4394 51.2152 43.9091C51.8857 44.3788 52.3989 45.0606 52.755 45.9545C53.1148 46.8485 53.2947 47.928 53.2947 49.1932C53.2947 50.4659 53.1148 51.553 52.755 52.4545C52.3989 53.3523 51.8857 54.0379 51.2152 54.5114C50.5485 54.9848 49.7474 55.2216 48.8118 55.2216ZM48.8118 53.4432C49.5391 53.4432 50.1129 53.0852 50.5334 52.3693C50.9576 51.6496 51.1697 50.5909 51.1697 49.1932C51.1697 48.2689 51.0732 47.4924 50.88 46.8636C50.6868 46.2348 50.4141 45.7614 50.0618 45.4432C49.7095 45.1212 49.2929 44.9602 48.8118 44.9602C48.0883 44.9602 47.5163 45.3201 47.0959 46.0398C46.6754 46.7557 46.4633 47.8068 46.4595 49.1932C46.4557 50.1212 46.5485 50.9015 46.7379 51.5341C46.9311 52.1667 47.2038 52.6439 47.5561 52.9659C47.9084 53.2841 48.3269 53.4432 48.8118 53.4432ZM61.4041 52.8182V52.2045C61.4041 51.7538 61.4988 51.339 61.6882 50.9602C61.8814 50.5814 62.1617 50.2765 62.5291 50.0455C62.8965 49.8144 63.3416 49.6989 63.8643 49.6989C64.4022 49.6989 64.853 49.8144 65.2166 50.0455C65.5803 50.2727 65.8549 50.5758 66.0405 50.9545C66.2299 51.3333 66.3246 51.75 66.3246 52.2045V52.8182C66.3246 53.2689 66.2299 53.6837 66.0405 54.0625C65.8511 54.4413 65.5727 54.7462 65.2053 54.9773C64.8416 55.2083 64.3946 55.3239 63.8643 55.3239C63.334 55.3239 62.8852 55.2083 62.5178 54.9773C62.1503 54.7462 61.8719 54.4413 61.6825 54.0625C61.4969 53.6837 61.4041 53.2689 61.4041 52.8182ZM62.8871 52.2045V52.8182C62.8871 53.1174 62.959 53.392 63.103 53.642C63.2469 53.892 63.5007 54.017 63.8643 54.017C64.2318 54.017 64.4837 53.8939 64.62 53.6477C64.7602 53.3977 64.8303 53.1212 64.8303 52.8182V52.2045C64.8303 51.9015 64.764 51.625 64.6314 51.375C64.4988 51.1212 64.2431 50.9943 63.8643 50.9943C63.5083 50.9943 63.2564 51.1212 63.1087 51.375C62.9609 51.625 62.8871 51.9015 62.8871 52.2045ZM55.4893 46.1591V45.5455C55.4893 45.0909 55.5859 44.6742 55.7791 44.2955C55.9723 43.9167 56.2526 43.6136 56.62 43.3864C56.9875 43.1553 57.4325 43.0398 57.9553 43.0398C58.4893 43.0398 58.9382 43.1553 59.3018 43.3864C59.6693 43.6136 59.9458 43.9167 60.1314 44.2955C60.317 44.6742 60.4098 45.0909 60.4098 45.5455V46.1591C60.4098 46.6136 60.3151 47.0303 60.1257 47.4091C59.9401 47.7841 59.6636 48.0852 59.2962 48.3125C58.9287 48.5398 58.4818 48.6534 57.9553 48.6534C57.4212 48.6534 56.9704 48.5398 56.603 48.3125C56.2393 48.0852 55.9628 47.7822 55.7734 47.4034C55.584 47.0246 55.4893 46.6098 55.4893 46.1591ZM56.9837 45.5455V46.1591C56.9837 46.4621 57.0537 46.7386 57.1939 46.9886C57.3378 47.2348 57.5916 47.358 57.9553 47.358C58.3189 47.358 58.5689 47.2348 58.7053 46.9886C58.8454 46.7386 58.9155 46.4621 58.9155 46.1591V45.5455C58.9155 45.2424 58.8492 44.9659 58.7166 44.7159C58.584 44.4621 58.3303 44.3352 57.9553 44.3352C57.5954 44.3352 57.3435 44.4621 57.1996 44.7159C57.0556 44.9697 56.9837 45.2462 56.9837 45.5455ZM56.1371 55L64.1371 43.3636H65.5575L57.5575 55H56.1371Z" fill="white"/>
<path d="M100 50C100 77.6142 77.6142 100 50 100C22.3858 100 0 77.6142 0 50C0 22.3858 22.3858 0 50 0C77.6142 0 100 22.3858 100 50ZM11.7536 50C11.7536 71.1229 28.8771 88.2464 50 88.2464C71.1229 88.2464 88.2464 71.1229 88.2464 50C88.2464 28.8771 71.1229 11.7536 50 11.7536C28.8771 11.7536 11.7536 28.8771 11.7536 50Z" fill="white"/>
<path d="M100 50C100 43.4339 98.7067 36.9321 96.194 30.8658C93.6812 24.7995 89.9983 19.2876 85.3553 14.6447C80.7124 10.0017 75.2004 6.31876 69.1342 3.80602C63.0679 1.29329 56.5661 -2.87013e-07 50 0C43.4339 2.87013e-07 36.9321 1.29329 30.8658 3.80602C24.7995 6.31876 19.2876 10.0017 14.6447 14.6447C10.0017 19.2876 6.31876 24.7996 3.80602 30.8658C1.29329 36.9321 -5.74026e-07 43.4339 0 50L11.7536 50C11.7536 44.9774 12.7429 40.004 14.665 35.3637C16.587 30.7235 19.4042 26.5072 22.9557 22.9557C26.5072 19.4042 30.7235 16.587 35.3637 14.665C40.004 12.7429 44.9774 11.7536 50 11.7536C55.0226 11.7536 59.996 12.7429 64.6363 14.665C69.2765 16.587 73.4928 19.4042 77.0443 22.9557C80.5958 26.5072 83.413 30.7235 85.335 35.3637C87.2571 40.004 88.2464 44.9774 88.2464 50H100Z" fill="#F9896B"/>
</svg>
