<svg width="40" height="40" viewBox="0 0 40 40" fill="none" xmlns="http://www.w3.org/2000/svg">
<circle cx="20" cy="20" r="19.5" stroke="#A6A6A6"/>
<g clip-path="url(#clip0_238_99)">
<path d="M25.3333 20.8889H20.8889V25.3334C20.8889 25.8223 20.4889 26.2223 20 26.2223C19.5111 26.2223 19.1111 25.8223 19.1111 25.3334V20.8889H14.6667C14.1778 20.8889 13.7778 20.4889 13.7778 20.0001C13.7778 19.5112 14.1778 19.1112 14.6667 19.1112H19.1111V14.6667C19.1111 14.1778 19.5111 13.7778 20 13.7778C20.4889 13.7778 20.8889 14.1778 20.8889 14.6667V19.1112H25.3333C25.8222 19.1112 26.2222 19.5112 26.2222 20.0001C26.2222 20.4889 25.8222 20.8889 25.3333 20.8889Z" fill="#A6A6A6"/>
</g>
<defs>
<clipPath id="clip0_238_99">
<rect width="21.3333" height="21.3333" fill="white" transform="translate(9.33331 9.33337)"/>
</clipPath>
</defs>
</svg>
