<svg width="36" height="44" viewBox="0 0 36 44" fill="none" xmlns="http://www.w3.org/2000/svg">
<path fill-rule="evenodd" clip-rule="evenodd" d="M17.3333 34.9905L4.99048 41.7524C4.005 42.2645 2.79091 41.902 2.24762 40.9333C2.09044 40.6333 2.00564 40.3006 2 39.9619V10C2 4.28571 5.90476 2 11.5238 2H24.7238C30.1714 2 34.2476 4.13333 34.2476 9.61905V39.9619C34.2476 40.5024 34.0329 41.0208 33.6507 41.4031C33.2685 41.7853 32.7501 42 32.2095 42C31.8647 41.9945 31.5258 41.9098 31.219 41.7524L18.8 34.9905C18.3424 34.7432 17.791 34.7432 17.3333 34.9905Z" stroke="#999999" stroke-width="3" stroke-linecap="round" stroke-linejoin="round"/>
<path d="M10.4771 15.6196H25.6577" stroke="#999999" stroke-width="3" stroke-linecap="round" stroke-linejoin="round"/>
</svg>
