<svg width="20" height="22" viewBox="0 0 20 22" fill="none" xmlns="http://www.w3.org/2000/svg">
<path d="M4.2465 0C4.08547 0 3.93104 0.0639685 3.81717 0.177834C3.70331 0.291699 3.63934 0.446133 3.63934 0.607163V1.81785H0.912561C0.792894 1.81737 0.67431 1.84053 0.563614 1.88599C0.452918 1.93146 0.352289 1.99833 0.267502 2.08278C0.182715 2.16723 0.115439 2.26759 0.0695338 2.3781C0.0236289 2.48862 -9.57322e-07 2.60711 0 2.72678V20.9053C-9.57322e-07 21.025 0.0236289 21.1435 0.0695338 21.254C0.115439 21.3645 0.182715 21.4648 0.267502 21.5493C0.352289 21.6337 0.452918 21.7006 0.563614 21.7461C0.67431 21.7915 0.792894 21.8147 0.912561 21.8142H19.0911C19.3321 21.8142 19.5633 21.7185 19.7338 21.548C19.9042 21.3775 20 21.1464 20 20.9053V2.72678C20 2.48572 19.9042 2.25453 19.7338 2.08407C19.5633 1.91361 19.3321 1.81785 19.0911 1.81785H16.3643V0.607163C16.3643 0.446133 16.3003 0.291699 16.1865 0.177834C16.0726 0.0639685 15.9182 0 15.7571 0H15.1536C14.9926 0 14.8381 0.0639685 14.7243 0.177834C14.6104 0.291699 14.5464 0.446133 14.5464 0.607163V1.81785H5.45719V0.607163C5.45719 0.446133 5.39322 0.291699 5.27936 0.177834C5.16549 0.0639685 5.01106 0 4.85003 0H4.2465ZM1.82149 3.6357H18.1821V5.45355H1.82149V3.6357ZM1.82149 7.27141H18.1821V19.9964H1.82149V7.27141ZM3.63934 9.08926V10.9071H5.45719V9.08926H3.63934ZM7.27504 9.08926V10.9071H9.09289V9.08926H7.27504ZM10.9107 9.08926V10.9071H12.7286V9.08926H10.9107ZM14.5464 9.08926V10.9071H16.3643V9.08926H14.5464ZM3.63934 12.725V14.5428H5.45719V12.725H3.63934ZM7.27504 12.725V14.5428H9.09289V12.725H7.27504ZM10.9107 12.725V14.5428H12.7286V12.725H10.9107ZM14.5464 12.725V14.5428H16.3643V12.725H14.5464ZM3.63934 16.3607V18.1785H5.45719V16.3607H3.63934ZM7.27504 16.3607V18.1785H9.09289V16.3607H7.27504ZM10.9107 16.3607V18.1785H12.7286V16.3607H10.9107Z" fill="#999999"/>
</svg>
