<svg width="27" height="21" viewBox="0 0 27 21" fill="none" xmlns="http://www.w3.org/2000/svg">
<path d="M24 21H3C1.346 21 0 19.654 0 18V6C0 4.346 1.346 3 3 3H6.279L6.595 2.051C6.79377 1.45348 7.17569 0.933758 7.68656 0.565594C8.19743 0.197429 8.81129 -0.000465265 9.441 8.21416e-07H17.558C18.851 8.21416e-07 19.995 0.824001 20.404 2.051L20.72 3H24C25.654 3 27 4.346 27 6V18C27 19.654 25.654 21 24 21ZM3 5C2.73478 5 2.48043 5.10536 2.29289 5.29289C2.10536 5.48043 2 5.73478 2 6V18C2 18.2652 2.10536 18.5196 2.29289 18.7071C2.48043 18.8946 2.73478 19 3 19H24C24.2652 19 24.5196 18.8946 24.7071 18.7071C24.8946 18.5196 25 18.2652 25 18V6C25 5.73478 24.8946 5.48043 24.7071 5.29289C24.5196 5.10536 24.2652 5 24 5H20.721C19.859 5 19.096 4.45 18.824 3.632L18.509 2.684C18.4425 2.48488 18.3151 2.31169 18.1448 2.18895C17.9745 2.0662 17.7699 2.0001 17.56 2H9.443C9.23296 1.99965 9.02817 2.06557 8.85778 2.18838C8.68738 2.31119 8.56008 2.48463 8.494 2.684L8.176 3.633C8.04371 4.03139 7.78919 4.37794 7.44862 4.62336C7.10805 4.86877 6.69878 5.00057 6.279 5H3Z" fill="#C08A7D"/>
<path d="M13.5 18C10.468 18 8 15.532 8 12.5C8 9.468 10.468 7 13.5 7C16.532 7 19 9.468 19 12.5C19 15.532 16.532 18 13.5 18ZM13.5 9C11.57 9 10 10.57 10 12.5C10 14.43 11.57 16 13.5 16C15.43 16 17 14.43 17 12.5C17 10.57 15.43 9 13.5 9Z" fill="#C08A7D"/>
<path d="M19.5 8C20.0523 8 20.5 7.55228 20.5 7C20.5 6.44772 20.0523 6 19.5 6C18.9477 6 18.5 6.44772 18.5 7C18.5 7.55228 18.9477 8 19.5 8Z" fill="#C08A7D"/>
<path d="M4.5 0.5H3C2.86739 0.5 2.74021 0.552679 2.64645 0.646447C2.55268 0.740215 2.5 0.867392 2.5 1C2.5 1.13261 2.55268 1.25979 2.64645 1.35355C2.74021 1.44732 2.86739 1.5 3 1.5H4.5C4.63261 1.5 4.75979 1.44732 4.85355 1.35355C4.94732 1.25979 5 1.13261 5 1C5 0.867392 4.94732 0.740215 4.85355 0.646447C4.75979 0.552679 4.63261 0.5 4.5 0.5Z" fill="#C08A7D"/>
<path d="M4.5 2H3C2.73478 2 2.48043 1.89464 2.29289 1.70711C2.10536 1.51957 2 1.26522 2 1C2 0.734784 2.10536 0.48043 2.29289 0.292893C2.48043 0.105357 2.73478 0 3 0H4.5C4.76522 0 5.01957 0.105357 5.20711 0.292893C5.39464 0.48043 5.5 0.734784 5.5 1C5.5 1.26522 5.39464 1.51957 5.20711 1.70711C5.01957 1.89464 4.76522 2 4.5 2Z" fill="#C08A7D"/>
</svg>
