<svg width="12" height="12" viewBox="0 0 12 12" fill="none" xmlns="http://www.w3.org/2000/svg">
<path d="M0.999787 11.9877C0.802037 11.9877 0.608738 11.929 0.444329 11.8191C0.279919 11.7092 0.151779 11.5531 0.0761092 11.3704C0.000439122 11.1877 -0.0193641 10.9866 0.0192034 10.7927C0.057771 10.5987 0.152978 10.4206 0.292787 10.2807L10.2928 0.280712C10.4814 0.0985542 10.734 -0.00224062 10.9962 3.78025e-05C11.2584 0.00231622 11.5092 0.107485 11.6946 0.292894C11.88 0.478302 11.9852 0.729114 11.9875 0.991311C11.9897 1.25351 11.8889 1.50611 11.7068 1.69471L1.70679 11.6947C1.61405 11.7877 1.50385 11.8615 1.38252 11.9117C1.26119 11.962 1.13112 11.9878 0.999787 11.9877Z" fill="#6563FF"/>
<path d="M10.9998 11.9877C10.8684 11.9878 10.7384 11.962 10.617 11.9117C10.4957 11.8615 10.3855 11.7877 10.2928 11.6947L0.292782 1.69471C0.110624 1.50611 0.00982909 1.25351 0.0121075 0.991311C0.0143859 0.729114 0.119555 0.478302 0.304963 0.292894C0.490371 0.107485 0.741184 0.00231622 1.00338 3.78025e-05C1.26558 -0.00224062 1.51818 0.0985542 1.70678 0.280712L11.7068 10.2807C11.8466 10.4206 11.9418 10.5987 11.9804 10.7927C12.0189 10.9866 11.9991 11.1877 11.9235 11.3704C11.8478 11.5531 11.7196 11.7092 11.5552 11.8191C11.3908 11.929 11.1975 11.9877 10.9998 11.9877Z" fill="#6563FF"/>
</svg>
