<svg width="22" height="20" viewBox="0 0 22 20" fill="none" xmlns="http://www.w3.org/2000/svg">
<path d="M15.7083 0C13.8125 0 12.0251 0.871979 10.8333 2.28891C9.64151 0.871979 7.85417 0 5.95833 0C2.5999 0 0 2.61568 0 5.99453C0 10.136 3.68323 13.4606 9.26229 18.5828L10.8333 20L12.4044 18.5828C17.9834 13.4605 21.6667 10.1359 21.6667 5.99453C21.6667 2.61568 19.0668 0 15.7083 0ZM11.5019 17.1488L11.2821 17.3505L10.8333 17.7554L10.3846 17.3506L10.1651 17.1491C7.53917 14.7385 5.2713 12.6567 3.77208 10.7952C2.31599 8.98724 1.66667 7.50667 1.66667 5.99453C1.66667 4.80365 2.10531 3.70646 2.90182 2.90516C3.69568 2.10651 4.78115 1.66667 5.95833 1.66667C7.31948 1.66667 8.6651 2.30036 9.55781 3.36172L10.8333 4.87818L12.1088 3.36172C13.0016 2.30036 14.3471 1.66667 15.7083 1.66667C16.8856 1.66667 17.971 2.10651 18.7649 2.9051C19.5614 3.70646 20 4.80359 20 5.99453C20 7.50667 19.3507 8.98719 17.8947 10.7951C16.3955 12.6566 14.1278 14.7383 11.5019 17.1488Z" fill="white"/>
</svg>
