<svg width="6" height="12" viewBox="0 0 6 12" fill="none" xmlns="http://www.w3.org/2000/svg">
<path fill-rule="evenodd" clip-rule="evenodd" d="M0.9841 0.000129628C0.719224 0.00434174 0.466843 0.113486 0.282357 0.303596C0.0978713 0.493707 -0.0036423 0.749163 9.99123e-05 1.01405V10.5841C9.99123e-05 10.8493 0.105457 11.1036 0.292993 11.2911C0.48053 11.4787 0.734883 11.5841 1.0001 11.5841C1.26532 11.5841 1.51967 11.4787 1.70721 11.2911C1.89474 11.1036 2.0001 10.8493 2.0001 10.5841V1.01405C2.00199 0.880193 1.97699 0.747309 1.92657 0.623299C1.87616 0.499289 1.80136 0.386686 1.70661 0.292122C1.61186 0.197558 1.49909 0.123053 1.37498 0.0728835C1.25087 0.0227136 1.11795 -0.00202559 0.9841 0.000129628ZM4.9841 0.000129628C4.71922 0.00434174 4.46684 0.113486 4.28236 0.303596C4.09787 0.493707 3.99636 0.749163 4.0001 1.01405V10.5841C4.0001 10.8493 4.10546 11.1036 4.29299 11.2911C4.48053 11.4787 4.73488 11.5841 5.0001 11.5841C5.26532 11.5841 5.51967 11.4787 5.70721 11.2911C5.89474 11.1036 6.0001 10.8493 6.0001 10.5841V1.01405C6.00199 0.880193 5.97699 0.747309 5.92657 0.623299C5.87616 0.499289 5.80136 0.386686 5.70661 0.292122C5.61186 0.197558 5.49909 0.123053 5.37498 0.0728835C5.25087 0.0227136 5.11795 -0.00202559 4.9841 0.000129628Z" fill="white"/>
</svg>
