<svg width="40" height="40" viewBox="0 0 40 40" fill="none" xmlns="http://www.w3.org/2000/svg">
<rect x="1.5" y="1.5" width="37" height="37" rx="8.5" stroke="#999999" stroke-width="3"/>
<mask id="path-2-inside-1_238_103" fill="white">
<path d="M18.1957 26C18.0363 26.0009 17.8828 25.9396 17.768 25.8289L13.1858 21.3811C13.1281 21.3249 13.0819 21.2579 13.0501 21.1839C13.0182 21.1099 13.0012 21.0304 13.0001 20.9498C12.9989 20.8693 13.0137 20.7893 13.0435 20.7144C13.0732 20.6395 13.1175 20.5713 13.1736 20.5135C13.2298 20.4557 13.2968 20.4096 13.3708 20.3777C13.4448 20.3458 13.5243 20.3288 13.6049 20.3277C13.6854 20.3266 13.7654 20.3413 13.8403 20.3711C13.9152 20.4009 13.9834 20.4451 14.0412 20.5013L17.4996 23.858C17.8874 24.2344 18.5041 24.2346 18.8922 23.8583L27.8488 15.1736C27.9655 15.0602 28.1224 14.9978 28.2851 15.0001C28.4478 15.0024 28.6029 15.0692 28.7164 15.1859C28.8298 15.3025 28.8922 15.4595 28.8899 15.6222C28.8876 15.7849 28.8208 15.94 28.7042 16.0534L18.6234 25.8289C18.5086 25.9396 18.3551 26.0009 18.1957 26Z"/>
</mask>
<path d="M18.1957 26C18.0363 26.0009 17.8828 25.9396 17.768 25.8289L13.1858 21.3811C13.1281 21.3249 13.0819 21.2579 13.0501 21.1839C13.0182 21.1099 13.0012 21.0304 13.0001 20.9498C12.9989 20.8693 13.0137 20.7893 13.0435 20.7144C13.0732 20.6395 13.1175 20.5713 13.1736 20.5135C13.2298 20.4557 13.2968 20.4096 13.3708 20.3777C13.4448 20.3458 13.5243 20.3288 13.6049 20.3277C13.6854 20.3266 13.7654 20.3413 13.8403 20.3711C13.9152 20.4009 13.9834 20.4451 14.0412 20.5013L17.4996 23.858C17.8874 24.2344 18.5041 24.2346 18.8922 23.8583L27.8488 15.1736C27.9655 15.0602 28.1224 14.9978 28.2851 15.0001C28.4478 15.0024 28.6029 15.0692 28.7164 15.1859C28.8298 15.3025 28.8922 15.4595 28.8899 15.6222C28.8876 15.7849 28.8208 15.94 28.7042 16.0534L18.6234 25.8289C18.5086 25.9396 18.3551 26.0009 18.1957 26Z" fill="#999999"/>
<path d="M18.1957 26L18.2197 22.0001L18.1957 21.9999L18.1717 22.0001L18.1957 26ZM17.768 25.8289L14.982 28.6991L14.992 28.7088L17.768 25.8289ZM13.1858 21.3811L10.3975 24.249L10.3998 24.2513L13.1858 21.3811ZM14.0412 20.5013L11.2528 23.3692L11.2553 23.3716L14.0412 20.5013ZM27.8488 15.1736L30.6333 18.0453L30.6372 18.0416L27.8488 15.1736ZM28.7042 16.0534L31.4888 18.925L31.4925 18.9214L28.7042 16.0534ZM18.6234 25.8289L21.3994 28.7088L21.408 28.7005L18.6234 25.8289ZM17.4996 23.858L20.2855 20.9877L17.4996 23.858ZM18.1717 22.0001C19.056 21.9947 19.9073 22.3353 20.544 22.949L14.992 28.7088C15.8583 29.5438 17.0166 30.0071 18.2197 29.9999L18.1717 22.0001ZM20.5541 22.9587L15.9719 18.5109L10.3998 24.2513L14.982 28.6991L20.5541 22.9587ZM15.9742 18.5131C16.293 18.8231 16.5477 19.1929 16.7237 19.6013L9.37646 22.7665C9.61617 23.3229 9.96312 23.8267 10.3975 24.249L15.9742 18.5131ZM16.7237 19.6013C16.8996 20.0097 16.9934 20.4488 16.9997 20.8935L9.00046 21.0061C9.00899 21.6119 9.13675 22.2101 9.37646 22.7665L16.7237 19.6013ZM16.9997 20.8935C17.0059 21.3381 16.9245 21.7797 16.7602 22.1929L9.32673 19.2359C9.10279 19.7988 8.99193 20.4004 9.00046 21.0061L16.9997 20.8935ZM16.7602 22.1929C16.5958 22.6061 16.3516 22.9829 16.0416 23.3018L10.3056 17.7252C9.88331 18.1596 9.55068 18.6729 9.32673 19.2359L16.7602 22.1929ZM16.0416 23.3018C15.7316 23.6206 15.3619 23.8753 14.9534 24.0513L11.7881 16.7041C11.2317 16.9438 10.7279 17.2908 10.3056 17.7252L16.0416 23.3018ZM14.9534 24.0513C14.545 24.2272 14.1059 24.321 13.6612 24.3273L13.5485 16.3281C12.9427 16.3366 12.3445 16.4644 11.7881 16.7041L14.9534 24.0513ZM13.6612 24.3273C13.2165 24.3336 12.775 24.2522 12.3617 24.0878L15.3189 16.6544C14.7559 16.4304 14.1544 16.3196 13.5485 16.3281L13.6612 24.3273ZM12.3617 24.0878C11.9485 23.9234 11.5717 23.6792 11.2528 23.3692L16.8295 17.6333C16.3951 17.211 15.8818 16.8783 15.3189 16.6544L12.3617 24.0878ZM11.2553 23.3716L14.7136 26.7283L20.2855 20.9877L16.8271 17.631L11.2553 23.3716ZM21.6767 26.73L30.6333 18.0453L25.0643 12.3019L16.1077 20.9867L21.6767 26.73ZM30.6372 18.0416C29.9932 18.6677 29.1269 19.0123 28.2288 18.9997L28.3415 11.0005C27.118 10.9832 25.9378 11.4527 25.0605 12.3057L30.6372 18.0416ZM28.2288 18.9997C27.3307 18.987 26.4744 18.6181 25.8484 17.9741L31.5844 12.3976C30.7314 11.5202 29.5649 11.0177 28.3415 11.0005L28.2288 18.9997ZM25.8484 17.9741C25.2223 17.3302 24.8777 16.4639 24.8903 15.5658L32.8895 15.6785C32.9068 14.4551 32.4373 13.2749 31.5844 12.3976L25.8484 17.9741ZM24.8903 15.5658C24.903 14.6678 25.2719 13.8116 25.9158 13.1855L31.4925 18.9214C32.3698 18.0684 32.8723 16.9019 32.8895 15.6785L24.8903 15.5658ZM25.9195 13.1819L15.8388 22.9573L21.408 28.7005L31.4888 18.925L25.9195 13.1819ZM15.8474 22.949C16.484 22.3353 17.3354 21.9947 18.2197 22.0001L18.1717 29.9999C19.3748 30.0071 20.5331 29.5438 21.3994 28.7088L15.8474 22.949ZM14.7136 26.7283C16.6528 28.6105 19.7366 28.6112 21.6767 26.73L16.1077 20.9867C17.2717 19.8579 19.122 19.8584 20.2855 20.9877L14.7136 26.7283Z" fill="#999999" mask="url(#path-2-inside-1_238_103)"/>
</svg>
