<svg width="20" height="20" viewBox="0 0 20 20" fill="none" xmlns="http://www.w3.org/2000/svg">
<mask id="path-1-inside-1_258_139" fill="white">
<path d="M17.0512 5.1747e-05C16.974 0.00126308 16.8978 0.0186046 16.8269 0.0510859C16.7561 0.0835672 16.6919 0.130552 16.6381 0.189357C16.5844 0.248162 16.5421 0.317635 16.5136 0.393809C16.4851 0.469982 16.471 0.551364 16.4722 0.633306V2.50784H14.7064C14.6869 2.5068 14.6672 2.5068 14.6477 2.50784C14.5705 2.51194 14.4948 2.53214 14.425 2.56728C14.3551 2.60242 14.2925 2.65182 14.2407 2.71266C14.1359 2.83553 14.0815 2.99752 14.0893 3.163C14.0971 3.32849 14.1665 3.48391 14.2822 3.59507C14.398 3.70624 14.5506 3.76404 14.7064 3.75577H16.4722V5.63031C16.4722 5.71225 16.4874 5.79338 16.5169 5.86909C16.5465 5.94479 16.5898 6.01357 16.6444 6.07151C16.6989 6.12945 16.7637 6.17541 16.835 6.20677C16.9063 6.23813 16.9828 6.25427 17.06 6.25427C17.1372 6.25427 17.2136 6.23813 17.2849 6.20677C17.3562 6.17541 17.421 6.12945 17.4756 6.07151C17.5302 6.01357 17.5734 5.94479 17.603 5.86909C17.6325 5.79338 17.6477 5.71225 17.6477 5.63031V3.75577H19.4122C19.5681 3.75577 19.7176 3.69003 19.8279 3.57301C19.9381 3.456 20 3.29729 20 3.13181C20 2.96632 19.9381 2.80761 19.8279 2.6906C19.7176 2.57358 19.5681 2.50784 19.4122 2.50784H17.6465V0.633306C17.6476 0.549913 17.6331 0.467116 17.6036 0.389809C17.5741 0.312501 17.5303 0.242254 17.4748 0.183217C17.4193 0.124181 17.3532 0.0775545 17.2805 0.046094C17.2077 0.0146336 17.1298 -0.00102232 17.0512 5.1747e-05ZM8.23485 2.51581C7.14361 2.51862 6.09783 2.98015 5.32631 3.79943C4.5548 4.61872 4.12036 5.72906 4.11805 6.88752C4.12036 8.04622 4.55497 9.15675 5.32676 9.97608C6.09854 10.7954 7.14464 11.2568 8.2361 11.2592C9.32757 11.2568 10.3737 10.7954 11.1455 9.97608C11.9172 9.15675 12.3518 8.04622 12.3542 6.88752C12.3518 5.72883 11.9172 4.61829 11.1455 3.79897C10.3737 2.97964 9.32632 2.51827 8.23485 2.51581ZM8.23485 3.76506C8.62158 3.76348 9.00479 3.84316 9.36238 3.9995C9.71998 4.15584 10.0449 4.38576 10.3184 4.67601C10.5919 4.96625 10.8086 5.31109 10.9561 5.69064C11.1035 6.0702 11.1787 6.47697 11.1774 6.88752C11.1785 7.29785 11.1032 7.70437 10.9558 8.08369C10.8084 8.463 10.5918 8.80762 10.3184 9.0977C10.045 9.38779 9.72033 9.61762 9.36296 9.77396C9.00559 9.93029 8.62262 10.0101 8.2361 10.0087C7.84958 10.0101 7.46662 9.93029 7.10925 9.77396C6.75188 9.61762 6.42717 9.38779 6.1538 9.0977C5.88043 8.80762 5.6638 8.463 5.51638 8.08369C5.36896 7.70437 5.29366 7.29785 5.29482 6.88752C5.2935 6.47708 5.36867 6.07042 5.51602 5.69095C5.66336 5.31148 5.87996 4.96671 6.15335 4.67648C6.42674 4.38625 6.75151 4.15631 7.10896 3.99989C7.46641 3.84346 7.84823 3.76366 8.23485 3.76506ZM8.23485 12.5058C3.73288 12.5058 0 15.7982 0 20H1.17676C1.17676 16.5908 4.26562 13.7564 8.2361 13.7564C12.2053 13.7564 15.2942 16.5908 15.2942 20H16.4697C16.4697 15.7982 12.7381 12.5058 8.23485 12.5058Z"/>
</mask>
<path d="M17.0512 5.1747e-05C16.974 0.00126308 16.8978 0.0186046 16.8269 0.0510859C16.7561 0.0835672 16.6919 0.130552 16.6381 0.189357C16.5844 0.248162 16.5421 0.317635 16.5136 0.393809C16.4851 0.469982 16.471 0.551364 16.4722 0.633306V2.50784H14.7064C14.6869 2.5068 14.6672 2.5068 14.6477 2.50784C14.5705 2.51194 14.4948 2.53214 14.425 2.56728C14.3551 2.60242 14.2925 2.65182 14.2407 2.71266C14.1359 2.83553 14.0815 2.99752 14.0893 3.163C14.0971 3.32849 14.1665 3.48391 14.2822 3.59507C14.398 3.70624 14.5506 3.76404 14.7064 3.75577H16.4722V5.63031C16.4722 5.71225 16.4874 5.79338 16.5169 5.86909C16.5465 5.94479 16.5898 6.01357 16.6444 6.07151C16.6989 6.12945 16.7637 6.17541 16.835 6.20677C16.9063 6.23813 16.9828 6.25427 17.06 6.25427C17.1372 6.25427 17.2136 6.23813 17.2849 6.20677C17.3562 6.17541 17.421 6.12945 17.4756 6.07151C17.5302 6.01357 17.5734 5.94479 17.603 5.86909C17.6325 5.79338 17.6477 5.71225 17.6477 5.63031V3.75577H19.4122C19.5681 3.75577 19.7176 3.69003 19.8279 3.57301C19.9381 3.456 20 3.29729 20 3.13181C20 2.96632 19.9381 2.80761 19.8279 2.6906C19.7176 2.57358 19.5681 2.50784 19.4122 2.50784H17.6465V0.633306C17.6476 0.549913 17.6331 0.467116 17.6036 0.389809C17.5741 0.312501 17.5303 0.242254 17.4748 0.183217C17.4193 0.124181 17.3532 0.0775545 17.2805 0.046094C17.2077 0.0146336 17.1298 -0.00102232 17.0512 5.1747e-05ZM8.23485 2.51581C7.14361 2.51862 6.09783 2.98015 5.32631 3.79943C4.5548 4.61872 4.12036 5.72906 4.11805 6.88752C4.12036 8.04622 4.55497 9.15675 5.32676 9.97608C6.09854 10.7954 7.14464 11.2568 8.2361 11.2592C9.32757 11.2568 10.3737 10.7954 11.1455 9.97608C11.9172 9.15675 12.3518 8.04622 12.3542 6.88752C12.3518 5.72883 11.9172 4.61829 11.1455 3.79897C10.3737 2.97964 9.32632 2.51827 8.23485 2.51581ZM8.23485 3.76506C8.62158 3.76348 9.00479 3.84316 9.36238 3.9995C9.71998 4.15584 10.0449 4.38576 10.3184 4.67601C10.5919 4.96625 10.8086 5.31109 10.9561 5.69064C11.1035 6.0702 11.1787 6.47697 11.1774 6.88752C11.1785 7.29785 11.1032 7.70437 10.9558 8.08369C10.8084 8.463 10.5918 8.80762 10.3184 9.0977C10.045 9.38779 9.72033 9.61762 9.36296 9.77396C9.00559 9.93029 8.62262 10.0101 8.2361 10.0087C7.84958 10.0101 7.46662 9.93029 7.10925 9.77396C6.75188 9.61762 6.42717 9.38779 6.1538 9.0977C5.88043 8.80762 5.6638 8.463 5.51638 8.08369C5.36896 7.70437 5.29366 7.29785 5.29482 6.88752C5.2935 6.47708 5.36867 6.07042 5.51602 5.69095C5.66336 5.31148 5.87996 4.96671 6.15335 4.67648C6.42674 4.38625 6.75151 4.15631 7.10896 3.99989C7.46641 3.84346 7.84823 3.76366 8.23485 3.76506ZM8.23485 12.5058C3.73288 12.5058 0 15.7982 0 20H1.17676C1.17676 16.5908 4.26562 13.7564 8.2361 13.7564C12.2053 13.7564 15.2942 16.5908 15.2942 20H16.4697C16.4697 15.7982 12.7381 12.5058 8.23485 12.5058Z" fill="white"/>
<path d="M17.0512 5.1747e-05L17.0102 -2.99967L17.0041 -2.99958L17.0512 5.1747e-05ZM16.4722 0.633306H19.4722V0.612106L19.4719 0.590908L16.4722 0.633306ZM16.4722 2.50784V5.50784H19.4722V2.50784H16.4722ZM14.7064 2.50784L14.5472 5.50362L14.6268 5.50784H14.7064V2.50784ZM14.6477 2.50784L14.8067 5.50363L14.8069 5.50362L14.6477 2.50784ZM14.2407 2.71266L11.9574 0.766713L14.2407 2.71266ZM14.7064 3.75577V0.755768H14.6269L14.5474 0.759985L14.7064 3.75577ZM16.4722 3.75577H19.4722V0.755768H16.4722V3.75577ZM16.4722 5.63031L19.4722 5.63031V5.63031H16.4722ZM17.06 6.25427V9.25427V6.25427ZM17.6477 5.63031L14.6477 5.63031L14.6477 5.63031L17.6477 5.63031ZM17.6477 3.75577V0.755768H14.6477V3.75577H17.6477ZM19.4122 3.75577V0.755768V3.75577ZM20 3.13181L23 3.13181L20 3.13181ZM19.4122 2.50784L19.4122 5.50784L19.4122 2.50784ZM17.6465 2.50784H14.6465V5.50784H17.6465V2.50784ZM17.6465 0.633306L14.6468 0.590983L14.6465 0.612143V0.633306H17.6465ZM8.23485 2.51581L8.2416 -0.484182L8.23437 -0.484198L8.22714 -0.48418L8.23485 2.51581ZM4.11805 6.88752L1.11803 6.88154L1.11806 6.89351L4.11805 6.88752ZM8.2361 11.2592L8.22936 14.2593L8.24285 14.2592L8.2361 11.2592ZM12.3542 6.88752L15.3542 6.89351L15.3541 6.88153L12.3542 6.88752ZM8.23485 3.76506L8.22396 6.76504L8.23553 6.76508L8.2471 6.76504L8.23485 3.76506ZM11.1774 6.88752L8.17741 6.87786L8.17738 6.88692L8.1774 6.89598L11.1774 6.88752ZM8.2361 10.0087L8.24699 7.00867L8.2361 7.00864L8.22522 7.00867L8.2361 10.0087ZM5.29482 6.88752L8.29481 6.89598L8.29483 6.88692L8.2948 6.87786L5.29482 6.88752ZM0 20H-3V23H0V20ZM1.17676 20V23H4.17676V20H1.17676ZM15.2942 20H12.2942V23H15.2942V20ZM16.4697 20V23H19.4697V20H16.4697ZM17.0041 -2.99958C16.5073 -2.99178 16.0218 -2.87998 15.5771 -2.67615L18.0768 2.77832C17.7738 2.91719 17.4408 2.99431 17.0983 2.99968L17.0041 -2.99958ZM15.5771 -2.67615C15.1328 -2.47256 14.7428 -2.18361 14.4241 -1.835L18.8522 2.21372C18.641 2.44471 18.3793 2.63969 18.0768 2.77832L15.5771 -2.67615ZM14.4241 -1.835C14.1057 -1.48677 13.8636 -1.08498 13.7035 -0.656564L19.3237 1.44418C19.2205 1.72025 19.063 1.9831 18.8522 2.21372L14.4241 -1.835ZM13.7035 -0.656564C13.5434 -0.228328 13.4661 0.22384 13.4725 0.675704L19.4719 0.590908C19.476 0.878888 19.4268 1.16829 19.3237 1.44418L13.7035 -0.656564ZM13.4722 0.633306V2.50784H19.4722V0.633306H13.4722ZM16.4722 -0.492155H14.7064V5.50784H16.4722V-0.492155ZM14.8656 -0.487927C14.74 -0.494605 14.6141 -0.494605 14.4884 -0.487927L14.8069 5.50362C14.7204 5.50821 14.6337 5.50821 14.5472 5.50362L14.8656 -0.487927ZM14.4886 -0.487938C13.9925 -0.461604 13.5123 -0.331889 13.0764 -0.11253L15.7735 5.24709C15.4773 5.39616 15.1484 5.48549 14.8067 5.50363L14.4886 -0.487938ZM13.0764 -0.11253C12.641 0.10656 12.2628 0.408396 11.9574 0.766713L16.5239 4.65861C16.3222 4.89525 16.0692 5.09828 15.7735 5.24709L13.0764 -0.11253ZM11.9574 0.766713C11.3443 1.48609 11.05 2.39974 11.0926 3.30414L17.086 3.02186C17.113 3.5953 16.9276 4.18496 16.5239 4.65861L11.9574 0.766713ZM11.0926 3.30414C11.1352 4.20897 11.5151 5.09695 12.2041 5.7587L16.3604 1.43144C16.8179 1.87086 17.0589 2.44801 17.086 3.02186L11.0926 3.30414ZM12.2041 5.7587C12.8994 6.42653 13.8549 6.80519 14.8655 6.75155L14.5474 0.759985C15.2462 0.722896 15.8965 0.985949 16.3604 1.43144L12.2041 5.7587ZM14.7064 6.75577H16.4722V0.755768H14.7064V6.75577ZM13.4722 3.75577V5.63031H19.4722V3.75577H13.4722ZM13.4722 5.63031C13.4722 6.08216 13.5559 6.53334 13.7222 6.95956L19.3117 4.77861C19.419 5.05343 19.4722 5.34233 19.4722 5.63031L13.4722 5.63031ZM13.7222 6.95956C13.8885 7.38597 14.1367 7.78464 14.4606 8.12853L18.8281 4.01449C19.0429 4.24251 19.2044 4.5036 19.3117 4.77861L13.7222 6.95956ZM14.4606 8.12853C14.7849 8.4728 15.1797 8.7561 15.6275 8.95299L18.0426 3.46055C18.3478 3.59472 18.6129 3.78611 18.8281 4.01449L14.4606 8.12853ZM15.6275 8.95299C16.0757 9.15011 16.5631 9.25427 17.06 9.25427L17.06 3.25427C17.4025 3.25427 17.737 3.32615 18.0426 3.46055L15.6275 8.95299ZM17.06 9.25427C17.5569 9.25427 18.0442 9.15011 18.4925 8.95299L16.0773 3.46055C16.383 3.32615 16.7174 3.25427 17.06 3.25427V9.25427ZM18.4925 8.95299C18.9402 8.7561 19.335 8.4728 19.6593 8.12853L15.2918 4.01449C15.507 3.78611 15.7722 3.59472 16.0773 3.46055L18.4925 8.95299ZM19.6593 8.12853C19.9832 7.78464 20.2314 7.38597 20.3978 6.95956L14.8082 4.77861C14.9155 4.5036 15.0771 4.24251 15.2918 4.01449L19.6593 8.12853ZM20.3978 6.95956C20.5641 6.53334 20.6477 6.08216 20.6477 5.63031L14.6477 5.63031C14.6477 5.34233 14.701 5.05343 14.8082 4.77861L20.3978 6.95956ZM20.6477 5.63031V3.75577H14.6477V5.63031H20.6477ZM17.6477 6.75577H19.4122V0.755768H17.6477V6.75577ZM19.4122 6.75577C20.4236 6.75577 21.3545 6.32761 22.0116 5.63003L17.6441 1.51599C18.0808 1.05245 18.7126 0.755768 19.4122 0.755768L19.4122 6.75577ZM22.0116 5.63003C22.6629 4.93854 23 4.03701 23 3.13181L17 3.13181C17 2.55758 17.2132 1.97345 17.6441 1.51599L22.0116 5.63003ZM23 3.13181C23 2.22661 22.6629 1.32507 22.0116 0.633578L17.6441 4.74762C17.2132 4.29016 17 3.70603 17 3.13181L23 3.13181ZM22.0116 0.633578C21.3545 -0.0639981 20.4236 -0.492155 19.4122 -0.492155L19.4122 5.50784C18.7126 5.50784 18.0808 5.21117 17.6441 4.74762L22.0116 0.633578ZM19.4122 -0.492155H17.6465V5.50784H19.4122V-0.492155ZM20.6465 2.50784V0.633306H14.6465V2.50784H20.6465ZM20.6462 0.675629C20.6527 0.215801 20.5725 -0.244323 20.4067 -0.679188L14.8005 1.45881C14.6936 1.17855 14.6426 0.884025 14.6468 0.590983L20.6462 0.675629ZM20.4067 -0.679188C20.2407 -1.11426 19.99 -1.52119 19.6607 -1.87152L15.2889 2.23795C15.0706 2.00569 14.9075 1.73926 14.8005 1.45881L20.4067 -0.679188ZM19.6607 -1.87152C19.331 -2.22224 18.9283 -2.50984 18.4711 -2.70752L16.0899 2.79971C15.7782 2.66495 15.5076 2.4706 15.2889 2.23795L19.6607 -1.87152ZM18.4711 -2.70752C18.0134 -2.90544 17.516 -3.00658 17.0102 -2.99967L17.0922 2.99977C16.7436 3.00454 16.4021 2.93471 16.0899 2.79971L18.4711 -2.70752ZM8.22714 -0.48418C6.28304 -0.479181 4.45892 0.344577 3.14227 1.74274L7.51035 5.85612C7.73674 5.61572 8.00417 5.51641 8.24257 5.5158L8.22714 -0.48418ZM3.14227 1.74274C1.83129 3.1349 1.12184 4.98549 1.11806 6.88154L7.11805 6.89351C7.11889 6.47262 7.27831 6.10254 7.51035 5.85612L3.14227 1.74274ZM1.11806 6.89351C1.12184 8.78993 1.83157 10.6409 3.14303 12.0331L7.51048 7.91906C7.27837 7.67265 7.11889 7.30251 7.11805 6.88153L1.11806 6.89351ZM3.14303 12.0331C4.46015 13.4313 6.28486 14.2549 8.22936 14.2592L8.24285 8.25924C8.00441 8.2587 7.73693 8.15945 7.51048 7.91906L3.14303 12.0331ZM8.24285 14.2592C10.1873 14.2549 12.0121 13.4313 13.3292 12.0331L8.96172 7.91906C8.73528 8.15945 8.46779 8.2587 8.22936 8.25924L8.24285 14.2592ZM13.3292 12.0331C14.6406 10.6409 15.3504 8.78993 15.3541 6.89351L9.35416 6.88153C9.35332 7.30251 9.19384 7.67265 8.96172 7.91906L13.3292 12.0331ZM15.3541 6.88153C15.3504 4.98512 14.6406 3.13418 13.3292 1.74195L8.96172 5.85599C9.19384 6.1024 9.35332 6.47254 9.35416 6.89351L15.3541 6.88153ZM13.3292 1.74195C12.0113 0.342943 10.1851 -0.47981 8.2416 -0.484182L8.2281 5.5158C8.46754 5.51634 8.73598 5.61634 8.96172 5.85599L13.3292 1.74195ZM8.2471 6.76504C8.21215 6.76518 8.18216 6.7577 8.1606 6.74827L10.5642 1.25073C9.82741 0.928622 9.03102 0.761785 8.22261 0.765086L8.2471 6.76504ZM8.1606 6.74827C8.13957 6.73907 8.13263 6.73085 8.13512 6.73349L12.5017 2.61852C11.9572 2.04067 11.3004 1.57261 10.5642 1.25073L8.1606 6.74827ZM8.13512 6.73349C8.13797 6.73651 8.14911 6.74978 8.15961 6.77682L13.7525 4.60446C13.4682 3.87239 13.0459 3.19599 12.5017 2.61852L8.13512 6.73349ZM8.15961 6.77682C8.17019 6.80405 8.17753 6.8389 8.17741 6.87786L14.1774 6.89719C14.1799 6.11503 14.0368 5.33634 13.7525 4.60446L8.15961 6.77682ZM8.1774 6.89598C8.17751 6.93491 8.17016 6.96973 8.15959 6.99694L13.7521 9.17044C14.0363 8.43902 14.1796 7.66079 14.1774 6.87907L8.1774 6.89598ZM8.15959 6.99694C8.14909 7.02395 8.13796 7.0372 8.13512 7.04022L12.5017 11.1552C13.0456 10.578 13.4677 9.90205 13.7521 9.17044L8.15959 6.99694ZM8.13512 7.04022C8.13263 7.04286 8.13956 7.03464 8.16056 7.02546L10.5653 12.5225C11.3011 12.2006 11.9574 11.7327 12.5017 11.1552L8.13512 7.04022ZM8.16056 7.02546C8.1821 7.01603 8.21206 7.00855 8.24699 7.00867L8.22522 13.0086C9.03319 13.0116 9.82908 12.8446 10.5653 12.5225L8.16056 7.02546ZM8.22522 7.00867C8.26015 7.00855 8.29011 7.01603 8.31164 7.02546L5.90686 12.5225C6.64313 12.8446 7.43902 13.0116 8.24699 13.0086L8.22522 7.00867ZM8.31164 7.02546C8.33265 7.03465 8.33957 7.04286 8.33709 7.04022L3.97051 11.1552C4.51476 11.7327 5.17112 12.2006 5.90686 12.5225L8.31164 7.02546ZM8.33709 7.04022C8.33424 7.0372 8.32312 7.02395 8.31262 6.99694L2.72014 9.17044C3.00447 9.90205 3.42661 10.578 3.97051 11.1552L8.33709 7.04022ZM8.31262 6.99694C8.30205 6.96972 8.2947 6.9349 8.29481 6.89598L2.29483 6.87907C2.29263 7.6608 2.43587 8.43902 2.72014 9.17044L8.31262 6.99694ZM8.2948 6.87786C8.29468 6.83892 8.30202 6.80408 8.31259 6.77684L2.71944 4.60505C2.43533 5.33675 2.29231 6.11524 2.29483 6.89718L8.2948 6.87786ZM8.31259 6.77684C8.32309 6.7498 8.33422 6.73653 8.33708 6.7335L3.96963 2.61946C3.42571 3.19688 3.00363 3.87316 2.71944 4.60505L8.31259 6.77684ZM8.33708 6.7335C8.33958 6.73085 8.33266 6.73906 8.31165 6.74825L5.90627 1.25152C5.17036 1.57355 4.5139 2.04166 3.96963 2.61946L8.33708 6.7335ZM8.31165 6.74825C8.29137 6.75713 8.26025 6.76517 8.22396 6.76504L8.24574 0.76508C7.4362 0.762142 6.64145 0.929798 5.90627 1.25152L8.31165 6.74825ZM8.23485 9.50583C2.37689 9.50583 -3 13.8557 -3 20H3C3 17.7407 5.08888 15.5058 8.23485 15.5058V9.50583ZM0 23H1.17676V17H0V23ZM4.17676 20C4.17676 18.5533 5.59933 16.7564 8.2361 16.7564V10.7564C2.93191 10.7564 -1.82324 14.6283 -1.82324 20H4.17676ZM8.2361 16.7564C10.8713 16.7564 12.2942 18.553 12.2942 20H18.2942C18.2942 14.6286 13.5394 10.7564 8.2361 10.7564V16.7564ZM15.2942 23H16.4697V17H15.2942V23ZM19.4697 20C19.4697 13.856 14.0944 9.50583 8.23485 9.50583V15.5058C11.3818 15.5058 13.4697 17.7404 13.4697 20H19.4697Z" fill="white" mask="url(#path-1-inside-1_258_139)"/>
</svg>
