<svg width="33" height="20" viewBox="0 0 33 20" fill="none" xmlns="http://www.w3.org/2000/svg">
<mask id="path-1-inside-1_272_169" fill="white">
<path d="M20.0547 0H2.78906C1.32031 0 0 1.10156 0 2.55469V17.2344C0 18.6875 1.32031 20 2.78906 20H20.0547C21.5234 20 22.6562 18.6875 22.6562 17.2344V2.55469C22.6562 1.10156 21.5234 0 20.0547 0ZM21.3281 17.2344C21.3281 17.9609 20.7891 18.6719 20.0547 18.6719H2.78906C2.05469 18.6719 1.32812 17.9609 1.32812 17.2344V2.55469C1.32812 1.82812 2.03125 1.34375 2.76563 1.34375L20.0312 1.35156C20.7656 1.35156 21.3281 1.82812 21.3281 2.55469V17.2344ZM25 6.64062V13.3281L32.6562 17.5V2.5L25 6.64062ZM31.3281 4.84375V15.1797L26.3281 12.5625V7.4375L31.3359 4.8125L31.3281 4.84375Z"/>
</mask>
<path d="M20.0547 0H2.78906C1.32031 0 0 1.10156 0 2.55469V17.2344C0 18.6875 1.32031 20 2.78906 20H20.0547C21.5234 20 22.6562 18.6875 22.6562 17.2344V2.55469C22.6562 1.10156 21.5234 0 20.0547 0ZM21.3281 17.2344C21.3281 17.9609 20.7891 18.6719 20.0547 18.6719H2.78906C2.05469 18.6719 1.32812 17.9609 1.32812 17.2344V2.55469C1.32812 1.82812 2.03125 1.34375 2.76563 1.34375L20.0312 1.35156C20.7656 1.35156 21.3281 1.82812 21.3281 2.55469V17.2344ZM25 6.64062V13.3281L32.6562 17.5V2.5L25 6.64062ZM31.3281 4.84375V15.1797L26.3281 12.5625V7.4375L31.3359 4.8125L31.3281 4.84375Z" fill="#6563FF"/>
<path d="M2.76563 1.34375L2.76653 -0.65625H2.76563V1.34375ZM20.0312 1.35156L20.0303 3.35156H20.0312V1.35156ZM25 6.64062L24.0486 4.88141L23 5.44851V6.64062H25ZM25 13.3281H23V14.516L24.043 15.0843L25 13.3281ZM32.6562 17.5L31.6993 19.2562L34.6562 20.8674V17.5H32.6562ZM32.6562 2.5H34.6562V-0.85538L31.7048 0.74079L32.6562 2.5ZM31.3281 4.84375L29.3878 4.35864L29.3281 4.59752V4.84375H31.3281ZM31.3281 15.1797L30.4006 16.9516L33.3281 18.484V15.1797H31.3281ZM26.3281 12.5625H24.3281V13.773L25.4006 14.3344L26.3281 12.5625ZM26.3281 7.4375L25.3996 5.66611L24.3281 6.22775V7.4375H26.3281ZM31.3359 4.8125L33.2762 5.29761L34.3581 0.970206L30.4074 3.04111L31.3359 4.8125ZM20.0547 -2H2.78906V2H20.0547V-2ZM2.78906 -2C0.441825 -2 -2 -0.216282 -2 2.55469H2C2 2.46519 2.03404 2.35041 2.17318 2.22661C2.32235 2.09389 2.54709 2 2.78906 2V-2ZM-2 2.55469V17.2344H2V2.55469H-2ZM-2 17.2344C-2 19.8064 0.230164 22 2.78906 22V18C2.41046 18 2 17.5686 2 17.2344H-2ZM2.78906 22H20.0547V18H2.78906V22ZM20.0547 22C22.7901 22 24.6562 19.6227 24.6562 17.2344H20.6562C20.6562 17.4466 20.5701 17.6598 20.4312 17.8114C20.3001 17.9546 20.1672 18 20.0547 18V22ZM24.6562 17.2344V2.55469H20.6562V17.2344H24.6562ZM24.6562 2.55469C24.6562 -0.0426588 22.5879 -2 20.0547 -2V2C20.2789 2 20.4232 2.07943 20.5071 2.1615C20.5886 2.24133 20.6562 2.36447 20.6562 2.55469H24.6562ZM19.3281 17.2344C19.3281 17.121 19.3633 17.0246 19.4381 16.9359C19.5241 16.8341 19.7353 16.6719 20.0547 16.6719V20.6719C22.1988 20.6719 23.3281 18.7333 23.3281 17.2344H19.3281ZM20.0547 16.6719H2.78906V20.6719H20.0547V16.6719ZM2.78906 16.6719C2.92781 16.6719 3.02612 16.7048 3.07946 16.7291C3.1325 16.7532 3.16442 16.7788 3.18462 16.7987C3.2047 16.8184 3.23399 16.8529 3.26217 16.9126C3.29061 16.973 3.32812 17.0822 3.32812 17.2344H-0.671875C-0.671875 18.2531 -0.180547 19.1002 0.381787 19.6525C0.945434 20.2061 1.79093 20.6719 2.78906 20.6719V16.6719ZM3.32812 17.2344V2.55469H-0.671875V17.2344H3.32812ZM3.32812 2.55469C3.32812 2.89542 3.14663 3.13893 3.01318 3.24462C2.90296 3.33191 2.81703 3.34375 2.76563 3.34375V-0.65625C1.38672 -0.65625 -0.671875 0.313832 -0.671875 2.55469H3.32812ZM2.76472 3.34375L20.0303 3.35156L20.0322 -0.648437L2.76653 -0.65625L2.76472 3.34375ZM20.0312 3.35156C19.9693 3.35156 19.7959 3.32875 19.6144 3.16477C19.4144 2.98412 19.3281 2.73984 19.3281 2.55469H23.3281C23.3281 1.64297 22.9606 0.797127 22.2958 0.196558C21.6494 -0.387345 20.8276 -0.648437 20.0312 -0.648437V3.35156ZM19.3281 2.55469V17.2344H23.3281V2.55469H19.3281ZM23 6.64062V13.3281H27V6.64062H23ZM24.043 15.0843L31.6993 19.2562L33.6132 15.7438L25.957 11.5719L24.043 15.0843ZM34.6562 17.5V2.5H30.6562V17.5H34.6562ZM31.7048 0.74079L24.0486 4.88141L25.9514 8.39984L33.6077 4.25921L31.7048 0.74079ZM29.3281 4.84375V15.1797H33.3281V4.84375H29.3281ZM32.2556 13.4078L27.2556 10.7906L25.4006 14.3344L30.4006 16.9516L32.2556 13.4078ZM28.3281 12.5625V7.4375H24.3281V12.5625H28.3281ZM27.2567 9.20889L32.2645 6.58389L30.4074 3.04111L25.3996 5.66611L27.2567 9.20889ZM29.3957 4.32739L29.3878 4.35864L33.2684 5.32886L33.2762 5.29761L29.3957 4.32739Z" fill="#6563FF" mask="url(#path-1-inside-1_272_169)"/>
</svg>
